# xmcd
#
# Track frame offsets: 
#        151
#        20268
#        40253
#        57374
#        75325
#        91252
#        109219
#        127182
#        144757
#        160468
#        180607
#        198774
#        213499
#        231814
#
# Disc length: 3326 seconds
#
# Revision: 1
# Processed by: cddbd v1.5.2PL0 Copyright (c) Steve Scherf et al.
# Submitted via: ExactAudioCopy v0.95b4
#
DISCID=b50cfc0e
DTITLE=Various Artist - รวมเพลงดังพันล้าน ชุด 11
DYEAR=2005
DGENRE=Country
TTITLE0=เต้ยโศก
TTITLE1=ขาร็อคขอร้อง
TTITLE2=ฮักน้องตอนเมา
TTITLE3=ฮักน้องได้สองเมา
TTITLE4=กอดน้องแน่นๆ
TTITLE5=จะกอดน้องตลอดไป
TTITLE6=มุ้นอุ้ยปุ้ย
TTITLE7=สู้โว้ย
TTITLE8=ผัวพี่เด้อน้อง
TTITLE9=บักสิเด่อ
TTITLE10=ศรีทนได้
TTITLE11=อีสานบ้านเฮา
TTITLE12=กะเทยประท้วง
TTITLE13=ชายอิสระ
EXTD=
EXTT0=
EXTT1=
EXTT2=
EXTT3=
EXTT4=
EXTT5=
EXTT6=
EXTT7=
EXTT8=
EXTT9=
EXTT10=
EXTT11=
EXTT12=
EXTT13=
PLAYORDER=
